<?xml version="1.0" standalone="no"?>
<!DOCTYPE svg PUBLIC "-//W3C//DTD SVG 20010904//EN"
 "http://www.w3.org/TR/2001/REC-SVG-20010904/DTD/svg10.dtd">
<svg version="1.0" xmlns="http://www.w3.org/2000/svg"
 width="16.000000pt" height="16.000000pt" viewBox="0 0 16.000000 16.000000"
 preserveAspectRatio="xMidYMid meet">

<g transform="translate(0.000000,16.000000) scale(0.100000,-0.100000)"
fill="#000000" stroke="none">
<path d="M50 140 c-22 -22 -25 -36 -10 -45 6 -3 11 -18 11 -33 2 -24 2 -24 6
-4 6 29 41 29 52 -1 12 -30 6 -37 -37 -39 -36 -1 -36 -1 -5 -5 58 -7 96 35 59
66 -8 7 -17 23 -20 36 -8 31 -34 32 -46 3 -6 -16 -9 -18 -9 -7 -1 21 17 36 49
42 25 4 25 4 -2 6 -16 0 -37 -8 -48 -19z m39 -49 c-15 -5 -22 6 -14 19 6 9 10
9 16 -1 5 -8 4 -15 -2 -18z"/>
</g>
</svg>
